<?xml version="1.0" encoding="UTF-8"?>
<!DOCTYPE svg
PUBLIC "-//W3C//DTD SVG 1.1//EN"
       "http://www.w3.org/Graphics/SVG/1.1/DTD/svg11.dtd">
<svg viewBox="82 2 1220 715" width="1138px" height="713px" xmlns="http://www.w3.org/2000/svg" version="1.1">
   <line x1="183" y1="186" x2="193" y2="186" style="stroke:#cb0;stroke-width:1;"/>
   <line x1="416" y1="349" x2="426" y2="349" style="stroke:#cb0;stroke-width:1;"/>
   <line x1="193" y1="186" x2="416" y2="349" style="stroke:#cb0;stroke-width:1;"/>
   <line x1="190.5" y1="186" x2="186.96446609407" y2="189.53553390593" style="stroke:#cb0;stroke-width:2;"/>
   <line x1="190.5" y1="186" x2="186.96446609407" y2="182.46446609407" style="stroke:#cb0;stroke-width:2;"/>
   <line x1="421" y1="349" x2="417.46446609407" y2="352.53553390593" style="stroke:#cb0;stroke-width:2;"/>
   <line x1="421" y1="349" x2="417.46446609407" y2="345.46446609407" style="stroke:#cb0;stroke-width:2;"/>
   <line x1="780" y1="550" x2="770" y2="550" style="stroke:#c00;stroke-width:1;"/>
   <line x1="536" y1="349" x2="526" y2="349" style="stroke:#c00;stroke-width:1;"/>
   <line x1="770" y1="550" x2="536" y2="349" style="stroke:#c00;stroke-width:1;"/>
   <line x1="772.5" y1="550" x2="776.03553390593" y2="553.53553390593" style="stroke:#c00;stroke-width:2;"/>
   <line x1="772.5" y1="550" x2="776.03553390593" y2="546.46446609407" style="stroke:#c00;stroke-width:2;"/>
   <line x1="531" y1="349" x2="534.53553390593" y2="352.53553390593" style="stroke:#c00;stroke-width:2;"/>
   <line x1="531" y1="349" x2="534.53553390593" y2="345.46446609407" style="stroke:#c00;stroke-width:2;"/>
   <line x1="232" y1="503" x2="242" y2="503" style="stroke:#333;stroke-width:1;"/>
   <line x1="416" y1="349" x2="426" y2="349" style="stroke:#333;stroke-width:1;"/>
   <line x1="242" y1="503" x2="416" y2="349" style="stroke:#333;stroke-width:1;"/>
   <line x1="239.5" y1="503" x2="235.96446609407" y2="506.53553390593" style="stroke:#333;stroke-width:2;"/>
   <line x1="239.5" y1="503" x2="235.96446609407" y2="499.46446609407" style="stroke:#333;stroke-width:2;"/>
   <line x1="421" y1="349" x2="417.46446609407" y2="352.53553390593" style="stroke:#333;stroke-width:2;"/>
   <line x1="421" y1="349" x2="417.46446609407" y2="345.46446609407" style="stroke:#333;stroke-width:2;"/>
   <line x1="405" y1="574" x2="395" y2="574" style="stroke:#b0b;stroke-width:1;"/>
   <line x1="416" y1="349" x2="426" y2="349" style="stroke:#b0b;stroke-width:1;"/>
   <line x1="395" y1="574" x2="416" y2="349" style="stroke:#b0b;stroke-width:1;"/>
   <line x1="397.5" y1="574" x2="401.03553390593" y2="577.53553390593" style="stroke:#b0b;stroke-width:2;"/>
   <line x1="397.5" y1="574" x2="401.03553390593" y2="570.46446609407" style="stroke:#b0b;stroke-width:2;"/>
   <line x1="421" y1="349" x2="417.46446609407" y2="352.53553390593" style="stroke:#b0b;stroke-width:2;"/>
   <line x1="421" y1="349" x2="417.46446609407" y2="345.46446609407" style="stroke:#b0b;stroke-width:2;"/>
   <line x1="426" y1="116" x2="416" y2="116" style="stroke:#b0b;stroke-width:1;"/>
   <line x1="416" y1="349" x2="426" y2="349" style="stroke:#b0b;stroke-width:1;"/>
   <line x1="416" y1="116" x2="416" y2="349" style="stroke:#b0b;stroke-width:1;"/>
   <line x1="418.5" y1="116" x2="422.03553390593" y2="119.53553390593" style="stroke:#b0b;stroke-width:2;"/>
   <line x1="418.5" y1="116" x2="422.03553390593" y2="112.46446609407" style="stroke:#b0b;stroke-width:2;"/>
   <line x1="421" y1="349" x2="417.46446609407" y2="352.53553390593" style="stroke:#b0b;stroke-width:2;"/>
   <line x1="421" y1="349" x2="417.46446609407" y2="345.46446609407" style="stroke:#b0b;stroke-width:2;"/>
   <line x1="507" y1="96" x2="517" y2="96" style="stroke:#0b0;stroke-width:1;"/>
   <line x1="618" y1="47" x2="628" y2="47" style="stroke:#0b0;stroke-width:1;"/>
   <line x1="517" y1="96" x2="618" y2="47" style="stroke:#0b0;stroke-width:1;"/>
   <line x1="514.5" y1="96" x2="510.96446609407" y2="99.535533905933" style="stroke:#0b0;stroke-width:2;"/>
   <line x1="514.5" y1="96" x2="510.96446609407" y2="92.464466094067" style="stroke:#0b0;stroke-width:2;"/>
   <line x1="623" y1="47" x2="619.46446609407" y2="50.535533905933" style="stroke:#0b0;stroke-width:2;"/>
   <line x1="623" y1="47" x2="619.46446609407" y2="43.464466094067" style="stroke:#0b0;stroke-width:2;"/>
   <line x1="1011" y1="328" x2="1001" y2="328" style="stroke:#c00;stroke-width:1;"/>
   <line x1="536" y1="349" x2="526" y2="349" style="stroke:#c00;stroke-width:1;"/>
   <line x1="1001" y1="328" x2="536" y2="349" style="stroke:#c00;stroke-width:1;"/>
   <line x1="1003.5" y1="328" x2="1007.0355339059" y2="331.53553390593" style="stroke:#c00;stroke-width:2;"/>
   <line x1="1003.5" y1="328" x2="1007.0355339059" y2="324.46446609407" style="stroke:#c00;stroke-width:2;"/>
   <line x1="531" y1="349" x2="534.53553390593" y2="352.53553390593" style="stroke:#c00;stroke-width:2;"/>
   <line x1="531" y1="349" x2="534.53553390593" y2="345.46446609407" style="stroke:#c00;stroke-width:2;"/>
   <line x1="844" y1="171" x2="834" y2="171" style="stroke:#cb0;stroke-width:1;"/>
   <line x1="536" y1="349" x2="526" y2="349" style="stroke:#cb0;stroke-width:1;"/>
   <line x1="834" y1="171" x2="536" y2="349" style="stroke:#cb0;stroke-width:1;"/>
   <line x1="836.5" y1="171" x2="840.03553390593" y2="174.53553390593" style="stroke:#cb0;stroke-width:2;"/>
   <line x1="836.5" y1="171" x2="840.03553390593" y2="167.46446609407" style="stroke:#cb0;stroke-width:2;"/>
   <line x1="531" y1="349" x2="534.53553390593" y2="352.53553390593" style="stroke:#cb0;stroke-width:2;"/>
   <line x1="531" y1="349" x2="534.53553390593" y2="345.46446609407" style="stroke:#cb0;stroke-width:2;"/>
   <rect width="86" height="20" x="97" y="136" style="fill:#007;stroke:black;"/>
   <text width="86" height="20" x="102" y="150" style="fill:#fff;" font-family="Arial" font-size="16px"> alarm</text>
   <rect width="86" height="20" x="97" y="156" style="fill:#aea;stroke:black;"/>
   <text width="86" height="20" x="102" y="170" style="fill:black;" font-family="Arial" font-size="16px">id</text>
   <rect width="86" height="20" x="97" y="176" style="fill:none;stroke:black;"/>
   <text width="86" height="20" x="102" y="190" style="fill:black;" font-family="Arial" font-size="16px">imei</text>
   <rect width="86" height="20" x="97" y="196" style="fill:none;stroke:black;"/>
   <text width="86" height="20" x="102" y="210" style="fill:black;" font-family="Arial" font-size="16px">time_set</text>
   <rect width="86" height="20" x="97" y="216" style="fill:none;stroke:black;"/>
   <text width="86" height="20" x="102" y="230" style="fill:black;" font-family="Arial" font-size="16px">date_set</text>
   <rect width="86" height="20" x="97" y="236" style="fill:none;stroke:black;"/>
   <text width="86" height="20" x="102" y="250" style="fill:black;" font-family="Arial" font-size="16px">clock_set</text>
   <rect width="86" height="20" x="97" y="256" style="fill:none;stroke:black;"/>
   <text width="86" height="20" x="102" y="270" style="fill:black;" font-family="Arial" font-size="16px">flag_pump</text>
   <rect width="86" height="20" x="97" y="276" style="fill:none;stroke:black;"/>
   <text width="86" height="20" x="102" y="290" style="fill:black;" font-family="Arial" font-size="16px">flag_uv</text>
   <rect width="86" height="20" x="97" y="296" style="fill:none;stroke:black;"/>
   <text width="86" height="20" x="102" y="310" style="fill:black;" font-family="Arial" font-size="16px">flag_loop</text>
   <rect width="86" height="20" x="97" y="316" style="fill:none;stroke:black;"/>
   <text width="86" height="20" x="102" y="330" style="fill:black;" font-family="Arial" font-size="16px">status</text>
   <rect width="86" height="20" x="97" y="336" style="fill:none;stroke:black;"/>
   <text width="86" height="20" x="102" y="350" style="fill:black;" font-family="Arial" font-size="16px">flag</text>
   <rect width="86" height="20" x="97" y="356" style="fill:none;stroke:black;"/>
   <text width="86" height="20" x="102" y="370" style="fill:black;" font-family="Arial" font-size="16px">created_at</text>
   <rect width="86" height="20" x="97" y="376" style="fill:none;stroke:black;"/>
   <text width="86" height="20" x="102" y="390" style="fill:black;" font-family="Arial" font-size="16px">updated_at</text>
   <rect width="127" height="20" x="780" y="500" style="fill:#007;stroke:black;"/>
   <text width="127" height="20" x="785" y="514" style="fill:#fff;" font-family="Arial" font-size="16px"> auto</text>
   <rect width="127" height="20" x="780" y="520" style="fill:#aea;stroke:black;"/>
   <text width="127" height="20" x="785" y="534" style="fill:black;" font-family="Arial" font-size="16px">id</text>
   <rect width="127" height="20" x="780" y="540" style="fill:none;stroke:black;"/>
   <text width="127" height="20" x="785" y="554" style="fill:black;" font-family="Arial" font-size="16px">imei</text>
   <rect width="127" height="20" x="780" y="560" style="fill:none;stroke:black;"/>
   <text width="127" height="20" x="785" y="574" style="fill:black;" font-family="Arial" font-size="16px">soil_moisture</text>
   <rect width="127" height="20" x="780" y="580" style="fill:none;stroke:black;"/>
   <text width="127" height="20" x="785" y="594" style="fill:black;" font-family="Arial" font-size="16px">temperature_env</text>
   <rect width="127" height="20" x="780" y="600" style="fill:none;stroke:black;"/>
   <text width="127" height="20" x="785" y="614" style="fill:black;" font-family="Arial" font-size="16px">light_sensor</text>
   <rect width="127" height="20" x="780" y="620" style="fill:none;stroke:black;"/>
   <text width="127" height="20" x="785" y="634" style="fill:black;" font-family="Arial" font-size="16px">is_updated</text>
   <rect width="127" height="20" x="780" y="640" style="fill:none;stroke:black;"/>
   <text width="127" height="20" x="785" y="654" style="fill:black;" font-family="Arial" font-size="16px">status</text>
   <rect width="127" height="20" x="780" y="660" style="fill:none;stroke:black;"/>
   <text width="127" height="20" x="785" y="674" style="fill:black;" font-family="Arial" font-size="16px">created_at</text>
   <rect width="127" height="20" x="780" y="680" style="fill:none;stroke:black;"/>
   <text width="127" height="20" x="785" y="694" style="fill:black;" font-family="Arial" font-size="16px">updated_at</text>
   <rect width="120" height="20" x="112" y="453" style="fill:#007;stroke:black;"/>
   <text width="120" height="20" x="117" y="467" style="fill:#fff;" font-family="Arial" font-size="16px"> controls</text>
   <rect width="120" height="20" x="112" y="473" style="fill:#aea;stroke:black;"/>
   <text width="120" height="20" x="117" y="487" style="fill:black;" font-family="Arial" font-size="16px">id</text>
   <rect width="120" height="20" x="112" y="493" style="fill:none;stroke:black;"/>
   <text width="120" height="20" x="117" y="507" style="fill:black;" font-family="Arial" font-size="16px">imei</text>
   <rect width="120" height="20" x="112" y="513" style="fill:none;stroke:black;"/>
   <text width="120" height="20" x="117" y="527" style="fill:black;" font-family="Arial" font-size="16px">is_pump</text>
   <rect width="120" height="20" x="112" y="533" style="fill:none;stroke:black;"/>
   <text width="120" height="20" x="117" y="547" style="fill:black;" font-family="Arial" font-size="16px">is_led_noti</text>
   <rect width="120" height="20" x="112" y="553" style="fill:none;stroke:black;"/>
   <text width="120" height="20" x="117" y="567" style="fill:black;" font-family="Arial" font-size="16px">is_updated</text>
   <rect width="120" height="20" x="112" y="573" style="fill:none;stroke:black;"/>
   <text width="120" height="20" x="117" y="587" style="fill:black;" font-family="Arial" font-size="16px">is_updated_auto</text>
   <rect width="120" height="20" x="112" y="593" style="fill:none;stroke:black;"/>
   <text width="120" height="20" x="117" y="607" style="fill:black;" font-family="Arial" font-size="16px">is_led_uv</text>
   <rect width="88" height="20" x="405" y="524" style="fill:#007;stroke:black;"/>
   <text width="88" height="20" x="410" y="538" style="fill:#fff;" font-family="Arial" font-size="16px"> notification</text>
   <rect width="88" height="20" x="405" y="544" style="fill:#aea;stroke:black;"/>
   <text width="88" height="20" x="410" y="558" style="fill:black;" font-family="Arial" font-size="16px">id</text>
   <rect width="88" height="20" x="405" y="564" style="fill:none;stroke:black;"/>
   <text width="88" height="20" x="410" y="578" style="fill:black;" font-family="Arial" font-size="16px">imei</text>
   <rect width="88" height="20" x="405" y="584" style="fill:none;stroke:black;"/>
   <text width="88" height="20" x="410" y="598" style="fill:black;" font-family="Arial" font-size="16px">title</text>
   <rect width="88" height="20" x="405" y="604" style="fill:none;stroke:black;"/>
   <text width="88" height="20" x="410" y="618" style="fill:black;" font-family="Arial" font-size="16px">content</text>
   <rect width="88" height="20" x="405" y="624" style="fill:none;stroke:black;"/>
   <text width="88" height="20" x="410" y="638" style="fill:black;" font-family="Arial" font-size="16px">created_at</text>
   <rect width="88" height="20" x="405" y="644" style="fill:none;stroke:black;"/>
   <text width="88" height="20" x="410" y="658" style="fill:black;" font-family="Arial" font-size="16px">status</text>
   <rect width="81" height="20" x="426" y="46" style="fill:#007;stroke:black;"/>
   <text width="81" height="20" x="431" y="60" style="fill:#fff;" font-family="Arial" font-size="16px"> owned</text>
   <rect width="81" height="20" x="426" y="66" style="fill:#aea;stroke:black;"/>
   <text width="81" height="20" x="431" y="80" style="fill:black;" font-family="Arial" font-size="16px">id</text>
   <rect width="81" height="20" x="426" y="86" style="fill:none;stroke:black;"/>
   <text width="81" height="20" x="431" y="100" style="fill:black;" font-family="Arial" font-size="16px">username</text>
   <rect width="81" height="20" x="426" y="106" style="fill:none;stroke:black;"/>
   <text width="81" height="20" x="431" y="120" style="fill:black;" font-family="Arial" font-size="16px">imei</text>
   <rect width="81" height="20" x="426" y="126" style="fill:none;stroke:black;"/>
   <text width="81" height="20" x="431" y="140" style="fill:black;" font-family="Arial" font-size="16px">token</text>
   <rect width="81" height="20" x="426" y="146" style="fill:none;stroke:black;"/>
   <text width="81" height="20" x="431" y="160" style="fill:black;" font-family="Arial" font-size="16px">created_at</text>
   <rect width="100" height="20" x="426" y="319" style="fill:#007;stroke:black;"/>
   <text width="100" height="20" x="431" y="333" style="fill:#fff;" font-family="Arial" font-size="16px"> plants</text>
   <rect width="100" height="20" x="426" y="339" style="fill:none;stroke:black;"/>
   <text width="100" height="20" x="431" y="353" style="fill:black;" font-family="Arial" font-size="16px">imei</text>
   <rect width="100" height="20" x="426" y="359" style="fill:none;stroke:black;"/>
   <text width="100" height="20" x="431" y="373" style="fill:black;" font-family="Arial" font-size="16px">img_url</text>
   <rect width="100" height="20" x="426" y="379" style="fill:none;stroke:black;"/>
   <text width="100" height="20" x="431" y="393" style="fill:black;" font-family="Arial" font-size="16px">name</text>
   <rect width="100" height="20" x="426" y="399" style="fill:none;stroke:black;"/>
   <text width="100" height="20" x="431" y="413" style="fill:black;" font-family="Arial" font-size="16px">token</text>
   <rect width="100" height="20" x="426" y="419" style="fill:none;stroke:black;"/>
   <text width="100" height="20" x="431" y="433" style="fill:black;" font-family="Arial" font-size="16px">qr_code</text>
   <rect width="100" height="20" x="426" y="439" style="fill:none;stroke:black;"/>
   <text width="100" height="20" x="431" y="453" style="fill:black;" font-family="Arial" font-size="16px">is_connected</text>
   <rect width="50" height="20" x="1011" y="278" style="fill:#007;stroke:black;"/>
   <text width="50" height="20" x="1016" y="292" style="fill:#fff;" font-family="Arial" font-size="16px"> pump</text>
   <rect width="50" height="20" x="1011" y="298" style="fill:#aea;stroke:black;"/>
   <text width="50" height="20" x="1016" y="312" style="fill:black;" font-family="Arial" font-size="16px">id</text>
   <rect width="50" height="20" x="1011" y="318" style="fill:none;stroke:black;"/>
   <text width="50" height="20" x="1016" y="332" style="fill:black;" font-family="Arial" font-size="16px">imei</text>
   <rect width="50" height="20" x="1011" y="338" style="fill:none;stroke:black;"/>
   <text width="50" height="20" x="1016" y="352" style="fill:black;" font-family="Arial" font-size="16px">level</text>
   <rect width="127" height="20" x="844" y="121" style="fill:#007;stroke:black;"/>
   <text width="127" height="20" x="849" y="135" style="fill:#fff;" font-family="Arial" font-size="16px"> sensors</text>
   <rect width="127" height="20" x="844" y="141" style="fill:#aea;stroke:black;"/>
   <text width="127" height="20" x="849" y="155" style="fill:black;" font-family="Arial" font-size="16px">id</text>
   <rect width="127" height="20" x="844" y="161" style="fill:none;stroke:black;"/>
   <text width="127" height="20" x="849" y="175" style="fill:black;" font-family="Arial" font-size="16px">imei</text>
   <rect width="127" height="20" x="844" y="181" style="fill:none;stroke:black;"/>
   <text width="127" height="20" x="849" y="195" style="fill:black;" font-family="Arial" font-size="16px">soil_moisture</text>
   <rect width="127" height="20" x="844" y="201" style="fill:none;stroke:black;"/>
   <text width="127" height="20" x="849" y="215" style="fill:black;" font-family="Arial" font-size="16px">temperature_env</text>
   <rect width="127" height="20" x="844" y="221" style="fill:none;stroke:black;"/>
   <text width="127" height="20" x="849" y="235" style="fill:black;" font-family="Arial" font-size="16px">light_sensor</text>
   <rect width="127" height="20" x="844" y="241" style="fill:none;stroke:black;"/>
   <text width="127" height="20" x="849" y="255" style="fill:black;" font-family="Arial" font-size="16px">water_level</text>
   <rect width="127" height="20" x="844" y="261" style="fill:none;stroke:black;"/>
   <text width="127" height="20" x="849" y="275" style="fill:black;" font-family="Arial" font-size="16px">updated_at</text>
   <rect width="147" height="20" x="1058" y="396" style="fill:#007;stroke:black;"/>
   <text width="147" height="20" x="1063" y="410" style="fill:#fff;" font-family="Arial" font-size="16px"> settings</text>
   <rect width="147" height="20" x="1058" y="416" style="fill:#aea;stroke:black;"/>
   <text width="147" height="20" x="1063" y="430" style="fill:black;" font-family="Arial" font-size="16px">id</text>
   <rect width="147" height="20" x="1058" y="436" style="fill:none;stroke:black;"/>
   <text width="147" height="20" x="1063" y="450" style="fill:black;" font-family="Arial" font-size="16px">site_name</text>
   <rect width="147" height="20" x="1058" y="456" style="fill:none;stroke:black;"/>
   <text width="147" height="20" x="1063" y="470" style="fill:black;" font-family="Arial" font-size="16px">logo_url</text>
   <rect width="147" height="20" x="1058" y="476" style="fill:none;stroke:black;"/>
   <text width="147" height="20" x="1063" y="490" style="fill:black;" font-family="Arial" font-size="16px">background_img_url</text>
   <rect width="147" height="20" x="1058" y="496" style="fill:none;stroke:black;"/>
   <text width="147" height="20" x="1063" y="510" style="fill:black;" font-family="Arial" font-size="16px">about</text>
   <rect width="147" height="20" x="1058" y="516" style="fill:none;stroke:black;"/>
   <text width="147" height="20" x="1063" y="530" style="fill:black;" font-family="Arial" font-size="16px">site</text>
   <rect width="147" height="20" x="1058" y="536" style="fill:none;stroke:black;"/>
   <text width="147" height="20" x="1063" y="550" style="fill:black;" font-family="Arial" font-size="16px">member_1</text>
   <rect width="147" height="20" x="1058" y="556" style="fill:none;stroke:black;"/>
   <text width="147" height="20" x="1063" y="570" style="fill:black;" font-family="Arial" font-size="16px">member_2</text>
   <rect width="147" height="20" x="1058" y="576" style="fill:none;stroke:black;"/>
   <text width="147" height="20" x="1063" y="590" style="fill:black;" font-family="Arial" font-size="16px">member_3</text>
   <rect width="147" height="20" x="1058" y="596" style="fill:none;stroke:black;"/>
   <text width="147" height="20" x="1063" y="610" style="fill:black;" font-family="Arial" font-size="16px">readme</text>
   <rect width="85" height="20" x="628" y="17" style="fill:#007;stroke:black;"/>
   <text width="85" height="20" x="633" y="31" style="fill:#fff;" font-family="Arial" font-size="16px"> users</text>
   <rect width="85" height="20" x="628" y="37" style="fill:none;stroke:black;"/>
   <text width="85" height="20" x="633" y="51" style="fill:black;" font-family="Arial" font-size="16px">username</text>
   <rect width="85" height="20" x="628" y="57" style="fill:none;stroke:black;"/>
   <text width="85" height="20" x="633" y="71" style="fill:black;" font-family="Arial" font-size="16px">email</text>
   <rect width="85" height="20" x="628" y="77" style="fill:none;stroke:black;"/>
   <text width="85" height="20" x="633" y="91" style="fill:black;" font-family="Arial" font-size="16px">password</text>
   <rect width="85" height="20" x="628" y="97" style="fill:none;stroke:black;"/>
   <text width="85" height="20" x="633" y="111" style="fill:black;" font-family="Arial" font-size="16px">fullname</text>
   <rect width="85" height="20" x="628" y="117" style="fill:none;stroke:black;"/>
   <text width="85" height="20" x="633" y="131" style="fill:black;" font-family="Arial" font-size="16px">avatar_img</text>
   <rect width="85" height="20" x="628" y="137" style="fill:none;stroke:black;"/>
   <text width="85" height="20" x="633" y="151" style="fill:black;" font-family="Arial" font-size="16px">role</text>
   <rect width="85" height="20" x="628" y="157" style="fill:none;stroke:black;"/>
   <text width="85" height="20" x="633" y="171" style="fill:black;" font-family="Arial" font-size="16px">token</text>
   <rect width="85" height="20" x="628" y="177" style="fill:none;stroke:black;"/>
   <text width="85" height="20" x="633" y="191" style="fill:black;" font-family="Arial" font-size="16px">created_at</text>
</svg>
