<svg width="30" height="31" viewBox="0 0 30 31" fill="none" xmlns="http://www.w3.org/2000/svg">
<g filter="url(#filter0_d_190_6)">
<path d="M25 11.08V12C24.9988 14.1564 24.3005 16.2547 23.0093 17.9818C21.7182 19.709 19.9033 20.9725 17.8354 21.5839C15.7674 22.1953 13.5573 22.1219 11.5345 21.3746C9.51168 20.6273 7.78465 19.2461 6.61096 17.4371C5.43727 15.628 4.87979 13.4881 5.02168 11.3363C5.16356 9.18457 5.99721 7.13633 7.39828 5.49707C8.79935 3.85782 10.6928 2.71538 12.7962 2.24015C14.8996 1.76491 17.1003 1.98234 19.07 2.86" stroke="#ADD2BC" stroke-width="2" stroke-linecap="round" stroke-linejoin="round"/>
<path d="M25 4L15 14.01L12 11.01" stroke="#ADD2BC" stroke-width="2" stroke-linecap="round" stroke-linejoin="round"/>
</g>
<defs>
<filter id="filter0_d_190_6" x="-1" y="0" width="32" height="32" filterUnits="userSpaceOnUse" color-interpolation-filters="sRGB">
<feFlood flood-opacity="0" result="BackgroundImageFix"/>
<feColorMatrix in="SourceAlpha" type="matrix" values="0 0 0 0 0 0 0 0 0 0 0 0 0 0 0 0 0 0 127 0" result="hardAlpha"/>
<feOffset dy="4"/>
<feGaussianBlur stdDeviation="2"/>
<feComposite in2="hardAlpha" operator="out"/>
<feColorMatrix type="matrix" values="0 0 0 0 0 0 0 0 0 0 0 0 0 0 0 0 0 0 0.25 0"/>
<feBlend mode="normal" in2="BackgroundImageFix" result="effect1_dropShadow_190_6"/>
<feBlend mode="normal" in="SourceGraphic" in2="effect1_dropShadow_190_6" result="shape"/>
</filter>
</defs>
</svg>
