<svg width="25" height="25" viewBox="0 0 25 25" fill="none" xmlns="http://www.w3.org/2000/svg">
<g clip-path="url(#clip0_195_78)">
<path d="M12.5876 17.9778C15.3491 17.9778 17.5876 15.7392 17.5876 12.9778C17.5876 10.2164 15.3491 7.97778 12.5876 7.97778C9.82622 7.97778 7.58765 10.2164 7.58765 12.9778C7.58765 15.7392 9.82622 17.9778 12.5876 17.9778Z" stroke="white" stroke-width="2" stroke-linecap="round" stroke-linejoin="round"/>
<path d="M12.5876 1.97778V3.97778" stroke="white" stroke-width="2" stroke-linecap="round" stroke-linejoin="round"/>
<path d="M12.5876 21.9778V23.9778" stroke="white" stroke-width="2" stroke-linecap="round" stroke-linejoin="round"/>
<path d="M4.80762 5.19775L6.22762 6.61775" stroke="white" stroke-width="2" stroke-linecap="round" stroke-linejoin="round"/>
<path d="M18.9476 19.3378L20.3676 20.7578" stroke="white" stroke-width="2" stroke-linecap="round" stroke-linejoin="round"/>
<path d="M1.58765 12.9778H3.58765" stroke="white" stroke-width="2" stroke-linecap="round" stroke-linejoin="round"/>
<path d="M21.5876 12.9778H23.5876" stroke="white" stroke-width="2" stroke-linecap="round" stroke-linejoin="round"/>
<path d="M4.80762 20.7578L6.22762 19.3378" stroke="white" stroke-width="2" stroke-linecap="round" stroke-linejoin="round"/>
<path d="M18.9476 6.61775L20.3676 5.19775" stroke="white" stroke-width="2" stroke-linecap="round" stroke-linejoin="round"/>
</g>
<defs>
<clipPath id="clip0_195_78">
<rect width="24" height="24" fill="white" transform="translate(0.587646 0.977783)"/>
</clipPath>
</defs>
</svg>
