<svg xmlns:osb="http://www.openswatchbook.org/uri/2009/osb" xmlns:ns1="http://sozi.baierouge.fr" xmlns:inkscape="http://www.inkscape.org/namespaces/inkscape" xmlns:sodipodi="http://sodipodi.sourceforge.net/DTD/sodipodi-0.dtd" xmlns:cc="http://creativecommons.org/ns#" xmlns:dc="http://purl.org/dc/elements/1.1/" xmlns:svg="http://www.w3.org/2000/svg" xmlns:rdf="http://www.w3.org/1999/02/22-rdf-syntax-ns#" xmlns="http://www.w3.org/2000/svg" xmlns:xlink="http://www.w3.org/1999/xlink" version="1.1" id="svg2" inkscape:version="0.48.0 r9654" sodipodi:docname="tekniklogga.svg" x="0px" y="0px" enable-background="new 0 0 800 600" xml:space="preserve" viewBox="216.73 7.12 389.91 545.3">
<sodipodi:namedview inkscape:document-units="px" inkscape:pageopacity="0.0" inkscape:window-width="1280" inkscape:cy="675.39314" inkscape:cx="207.89597" showgrid="false" inkscape:window-x="0" inkscape:zoom="0.43838424" inkscape:pageshadow="2" bordercolor="#666666" inkscape:window-height="752" pagecolor="#ffffff" inkscape:current-layer="layer1" inkscape:window-y="0" borderopacity="1.0" id="base" inkscape:window-maximized="0">
	</sodipodi:namedview>
<g id="layer1" inkscape:groupmode="layer" inkscape:label="Layer 1">
	
		<path id="path2472" sodipodi:nodetypes="ccccccccccccccccc" inkscape:connector-curvature="0" fill="#4D4D4D" stroke="#000000" stroke-width="1.8332" d="   M387.037,327.387l12.802-20.578l4.822-31.805l17.528-3.783l-43.57-40.405l3.564-28.553l-18.266-3.985l-5.03,40.31l17.219,19.207   l-5.141,13.856l-25.505,13.022l-9.127,25.3l28.239,12.904l1.313,3.148l-24.785,211.713l16.206,1.881L387.037,327.387z"/>
	
		<path id="path2474" sodipodi:nodetypes="ccccccccccccccc" inkscape:connector-curvature="0" fill="#4D4D4D" stroke="#000000" stroke-width="1.8332" d="   M417.027,550.15l27.328-224.142l0.523-11.023l-15.014-2.725l5.554-51.333l-44.514-32.847l1.781-21.099l97.624,10.477l-7.97,43.354   l-13.538,12.809l22.473,45.447l-1.781,14.275l-22.253,0.635l-32.473,217.531L417.027,550.15z"/>
	
		<path id="path2470" sodipodi:nodetypes="cccccscccc" inkscape:connector-curvature="0" opacity="0.7897" fill="#00FF00" stroke="#FFFFFF" stroke-width="1.8332" enable-background="new    " d="   M499.896,352.773c0,0-55.796,16.064-190.795-22.958c-0.632-8.607,4.579-37.014,4.579-37.014l13.104-2.489   c0,0,24.939-171.614,29.426-185.724c0.812-18.831,43.806-57.212,84.072-51.768c53.662,7.259,72.667,61.629,71.286,64.332   c3.662,16.978-17.456,196.138-17.456,196.138l10.275,4.594l-4.49,34.884V352.773z"/>
	
		<radialGradient id="path2991_1_" cx="346.6953" cy="481.9639" r="91.1443" gradientTransform="matrix(-0.1457 1.2263 -2.1905 -0.2603 1545.5074 -235.5972)" gradientUnits="userSpaceOnUse">
		<stop offset="0" style="stop-color:#FFFFFF"/>
		<stop offset="1" style="stop-color:#FFFFFF;stop-opacity:0"/>
	</radialGradient>
	<path id="path2991" sodipodi:nodetypes="cccccscccc" inkscape:connector-curvature="0" fill="url(#path2991_1_)" d="   M498.809,351.931c0,0-54.791,16.007-187.262-22.523c-0.608-8.538,4.543-36.722,4.543-36.722l12.866-2.486   c0,0,24.705-170.259,29.127-184.258c0.821-18.68,43.077-56.811,82.594-51.459c52.668,7.13,71.252,61.037,69.893,63.718   c3.573,16.836-17.392,194.58-17.392,194.58l10.08,4.543l-4.453,34.608L498.809,351.931z"/>
	
		<path id="path2480" sodipodi:nodetypes="cscczcc" inkscape:connector-curvature="0" opacity="0.5952" fill="#CCCCCC" fill-opacity="0.6224" stroke="#CCCCCC" stroke-width="1.8332" stroke-linecap="round" stroke-linejoin="round" enable-background="new    " d="   M325.227,293.083c0,0-3.496-0.058-5.143,0.251l-5.248,0.985c0,0,91.101,28.101,189.558,25.037l-1.426-0.739   c-1.633-0.847-5.382-2.401-6.516-2.995l-171.228-22.54L325.227,293.083L325.227,293.083z"/>
	
		<radialGradient id="path3796_1_" cx="682.0957" cy="441.8242" r="96.0469" gradientTransform="matrix(-1.5833 1.1136 -0.9305 -1.4567 1901.184 54.5908)" gradientUnits="userSpaceOnUse">
		<stop offset="0" style="stop-color:#00FF00"/>
		<stop offset="1" style="stop-color:#00FF00;stop-opacity:0"/>
	</radialGradient>
	
		<path id="path3796" sodipodi:cx="675.97021" sodipodi:cy="446.93576" sodipodi:type="arc" sodipodi:ry="73.222664" sodipodi:rx="95.546646" opacity="0.5952" fill="url(#path3796_1_)" enable-background="new    " d="   M605.363,200.872C594.567,293.04,499.04,357.419,391.995,344.668c-107.043-12.753-185.067-97.806-174.271-189.975   c0.085-0.722,0.175-1.444,0.271-2.165C228.791,60.361,324.32-4.019,431.364,8.734c107.044,12.751,185.066,97.805,174.271,189.973   C605.55,199.429,605.459,200.151,605.363,200.872z"/>
</g>
</svg>