<svg xmlns="http://www.w3.org/2000/svg" xmlns:xlink="http://www.w3.org/1999/xlink" id="a" viewBox="0 0 371.77 911.8"><defs><style>.i{fill:#2fb44a;opacity:.79;stroke:#fff;}.i,.j,.k{stroke-width:1.83px;}.i,.k{isolation:isolate;}.j{fill:#4e4e4e;stroke:#010101;}.l{fill:url(#f);}.k{fill:rgba(204,204,204,.62);opacity:.6;stroke:#ccc;stroke-linecap:round;stroke-linejoin:round;}</style><radialGradient id="f" cx="-298.84" cy="613.36" fx="-298.84" fy="613.36" r="166.14" gradientTransform="translate(-1148.86 229.24) rotate(96.78) scale(1.23 -2.21)" gradientUnits="userSpaceOnUse"><stop offset="0" stop-color="#fff"/><stop offset="1" stop-color="#fff" stop-opacity="0"/></radialGradient></defs><g id="b"><path id="c" class="j" d="M143.07,502.35l23.34-37.51,8.79-57.97,31.95-6.9-79.42-73.65,6.5-52.05-33.29-7.26-9.17,73.48,31.39,35.01-9.37,25.26-46.49,23.74-16.64,46.12,51.47,23.52,2.39,5.74-45.18,385.91,29.54,3.43,54.19-386.85Z"/><path id="d" class="j" d="M197.74,908.4l49.81-408.56,.95-20.09-27.37-4.97,10.12-93.57-81.14-59.87,3.25-38.46,177.95,19.1-14.53,79.03-24.68,23.35,40.96,82.84-3.25,26.02-40.56,1.16-59.19,396.51-32.34-2.48Z"/><path id="e" class="i" d="M348.79,548.62s-101.7,29.28-347.78-41.85c-1.15-15.69,8.35-67.47,8.35-67.47l23.89-4.54S78.7,121.95,86.88,96.23C88.36,61.91,166.73-8.05,240.13,1.87c97.81,13.23,132.46,112.34,129.94,117.26,6.68,30.95-31.82,357.52-31.82,357.52l18.73,8.37-8.18,63.59h0Z"/><path id="g" class="l" d="M346.81,547.09s-99.87,29.18-341.34-41.05c-1.11-15.56,8.28-66.94,8.28-66.94l23.45-4.53S82.24,124.22,90.3,98.7C91.79,64.65,168.82-4.85,240.85,4.9c96,13,129.88,111.26,127.4,116.14,6.51,30.69-31.7,354.68-31.7,354.68l18.37,8.28-8.12,63.08h0Z"/><path id="h" class="k" d="M30.41,439.82s-6.37-.11-9.37,.46l-9.57,1.8s166.06,51.22,345.52,45.64l-2.6-1.35c-2.98-1.54-9.81-4.38-11.88-5.46L30.4,439.82h0Z"/></g></svg>