<svg xmlns="http://www.w3.org/2000/svg" xmlns:xlink="http://www.w3.org/1999/xlink" width="500" zoomAndPan="magnify" viewBox="0 0 375 374.999991" height="500" preserveAspectRatio="xMidYMid meet" version="1.0"><defs><clipPath id="id1"><path d="M 67.734375 220.449219 L 323.484375 220.449219 L 323.484375 290.199219 L 67.734375 290.199219 Z M 67.734375 220.449219 " clip-rule="nonzero"/></clipPath><clipPath id="id2"><path d="M 113.269531 250.117188 L 242.269531 250.117188 L 242.269531 354.367188 L 113.269531 354.367188 Z M 113.269531 250.117188 " clip-rule="nonzero"/></clipPath><clipPath id="id3"><path d="M 172.894531 233.425781 L 297.394531 233.425781 L 297.394531 331.675781 L 172.894531 331.675781 Z M 172.894531 233.425781 " clip-rule="nonzero"/></clipPath><clipPath id="id4"><path d="M 194 225.332031 L 264 225.332031 L 264 319 L 194 319 Z M 194 225.332031 " clip-rule="nonzero"/></clipPath><clipPath id="id5"><path d="M 126 225.332031 L 176 225.332031 L 176 302 L 126 302 Z M 126 225.332031 " clip-rule="nonzero"/></clipPath><clipPath id="id6"><path d="M 114.21875 288 L 176 288 L 176 347 L 114.21875 347 Z M 114.21875 288 " clip-rule="nonzero"/></clipPath><clipPath id="id7"><path d="M 187 225.332031 L 251 225.332031 L 251 349 L 187 349 Z M 187 225.332031 " clip-rule="nonzero"/></clipPath><clipPath id="id8"><path d="M 170 225.332031 L 193 225.332031 L 193 364.082031 L 170 364.082031 Z M 170 225.332031 " clip-rule="nonzero"/></clipPath></defs><path fill="#ffffff" d="M 187.5 0 C 83.945312 0 0 83.945312 0 187.5 C 0 291.054688 83.945312 375 187.5 375 C 291.054688 375 375 291.054688 375 187.5 C 375 83.945312 291.054688 0 187.5 0 " fill-opacity="1" fill-rule="nonzero"/><path fill="#008037" d="M 183.070312 117.320312 C 170.664062 107.394531 163.574219 92.507812 163.574219 76.207031 C 163.574219 58.128906 172.789062 41.46875 187.675781 31.898438 C 202.5625 41.46875 211.777344 58.484375 211.777344 76.207031 C 211.777344 92.15625 204.691406 107.394531 192.285156 117.320312 L 187.675781 60.964844 Z M 123.878906 118.738281 C 148.6875 121.574219 168.183594 141.421875 170.664062 166.234375 C 159.320312 149.21875 137.347656 165.878906 112.890625 146.382812 C 101.902344 137.523438 94.8125 124.410156 93.394531 110.230469 C 112.179688 96.410156 137.347656 96.054688 156.484375 108.8125 L 157.195312 109.167969 C 174.5625 120.863281 185.550781 140.714844 185.90625 161.980469 C 186.257812 140.714844 197.246094 120.863281 214.613281 109.167969 L 215.324219 108.8125 C 234.464844 96.054688 259.984375 96.761719 278.414062 110.230469 C 276.996094 124.410156 269.90625 137.523438 258.921875 146.382812 C 234.464844 165.878906 212.488281 149.574219 201.5 166.234375 C 203.980469 141.421875 223.476562 121.574219 248.285156 118.738281 C 208.234375 122.636719 189.09375 152.765625 190.867188 208.765625 C 187.675781 208.765625 184.132812 208.410156 180.589844 207.703125 C 182.007812 152.410156 162.867188 122.992188 123.167969 118.738281 Z M 187.675781 -0.355469 C 239.425781 -0.355469 286.210938 20.558594 320.238281 54.585938 C 354.265625 88.609375 375.175781 135.398438 375.175781 187.144531 C 375.175781 193.527344 374.824219 199.550781 374.46875 205.578125 C 368.796875 205.929688 364.191406 205.929688 360.289062 205.929688 C 361 199.90625 361.355469 193.527344 361.355469 187.144531 C 361.355469 139.296875 341.859375 96.054688 310.667969 64.507812 C 279.476562 33.316406 235.882812 13.824219 188.03125 13.824219 C 140.183594 13.824219 96.585938 33.316406 65.394531 64.507812 C 34.203125 96.054688 14.710938 139.296875 14.710938 187.144531 C 14.710938 193.527344 15.0625 199.90625 15.773438 205.929688 C 11.875 205.929688 7.265625 205.929688 1.59375 205.578125 C 0.886719 199.550781 0.886719 193.171875 0.886719 187.144531 C 0.886719 135.398438 21.796875 88.609375 55.824219 54.585938 C 89.851562 20.910156 136.636719 -0.355469 188.386719 -0.355469 Z M 187.675781 -0.355469 " fill-opacity="1" fill-rule="evenodd"/><path fill="#004aad" d="M 57.597656 203.449219 C 72.484375 197.070312 87.371094 190.691406 105.800781 190.691406 C 121.75 190.691406 136.636719 197.070312 151.523438 203.449219 C 165.347656 209.476562 178.816406 215.144531 191.929688 215.144531 C 205.042969 215.144531 218.867188 209.121094 232.691406 203.449219 C 247.933594 197.070312 262.820312 190.691406 278.769531 190.691406 C 294.011719 190.691406 308.542969 197.070312 323.074219 203.449219 C 346.46875 214.082031 352.492188 215.855469 373.757812 215.144531 C 367.734375 255.90625 348.59375 292.414062 320.949219 320.0625 C 286.921875 354.085938 240.132812 375 188.386719 375 C 136.636719 375 89.851562 354.085938 55.824219 320.0625 C 28.179688 292.414062 9.039062 255.90625 3.011719 215.144531 C 24.632812 216.210938 33.140625 214.4375 58.304688 203.449219 Z M 179.523438 227.90625 C 178.105469 233.578125 175.273438 237.832031 171.726562 240.667969 C 162.15625 250.234375 147.625 253.425781 134.867188 248.820312 C 126.714844 245.984375 119.625 246.335938 112.535156 249.527344 C 101.546875 254.136719 88.078125 271.503906 76.027344 258.035156 C 75.671875 257.324219 74.609375 257.324219 73.902344 257.679688 C 73.191406 258.035156 72.839844 259.097656 73.191406 259.804688 C 83.117188 270.085938 93.042969 271.503906 103.320312 263.351562 C 112.179688 255.199219 119.980469 252.71875 126.359375 255.199219 C 128.132812 255.90625 132.03125 257.679688 132.03125 260.160156 C 132.03125 260.871094 126.003906 266.894531 124.585938 268.667969 C 118.5625 277.527344 119.625 285.324219 105.445312 286.390625 C 104.738281 286.390625 104.382812 287.097656 104.382812 287.808594 C 104.382812 288.515625 105.09375 288.871094 105.800781 288.871094 C 129.902344 292.414062 126.359375 264.414062 143.726562 262.289062 C 153.296875 260.871094 156.484375 264.058594 167.472656 258.386719 C 176.691406 254.84375 180.234375 255.199219 178.816406 259.804688 C 177.042969 265.832031 173.855469 272.921875 169.246094 281.074219 C 162.867188 293.125 162.15625 303.757812 166.765625 312.617188 C 173.855469 326.441406 171.371094 337.429688 158.96875 344.871094 C 158.257812 345.582031 158.257812 346.644531 158.613281 347.351562 C 159.320312 348.0625 160.386719 348.417969 161.09375 348.0625 C 177.042969 339.910156 182.007812 328.566406 175.625 313.679688 C 169.601562 300.566406 170.664062 290.644531 178.816406 283.910156 C 182.714844 280.71875 185.550781 290.644531 187.675781 293.125 C 194.058594 301.628906 203.980469 303.757812 200.082031 319.351562 C 199.726562 320.0625 200.082031 320.769531 200.4375 321.125 C 200.792969 321.480469 201.5 321.832031 202.210938 321.832031 C 202.917969 321.832031 203.273438 321.125 203.628906 320.414062 C 206.460938 312.617188 206.109375 305.882812 202.917969 300.921875 C 195.828125 288.871094 182.714844 281.78125 189.449219 265.832031 C 190.867188 262.996094 193.347656 262.289062 196.894531 263.703125 C 206.460938 266.1875 214.261719 267.957031 220.640625 268.667969 C 235.527344 270.085938 243.679688 260.160156 253.25 267.605469 C 257.148438 270.792969 259.984375 274.691406 261.753906 280.007812 C 266.71875 294.542969 259.984375 299.859375 279.476562 308.71875 C 280.1875 309.074219 281.25 308.71875 281.957031 307.65625 C 282.3125 306.945312 282.3125 305.882812 281.605469 305.175781 C 261.402344 294.894531 279.832031 281.425781 264.238281 265.832031 C 263.527344 265.121094 263.527344 263.703125 264.238281 262.640625 C 264.945312 261.578125 266.363281 261.578125 267.425781 262.289062 C 284.441406 272.566406 298.972656 272.566406 311.378906 262.289062 C 312.441406 261.222656 312.441406 259.804688 311.730469 258.742188 C 311.023438 257.679688 309.605469 257.324219 308.542969 257.679688 C 291.175781 267.25 283.023438 260.160156 268.488281 253.070312 C 260.339844 249.171875 251.832031 249.171875 242.261719 253.78125 C 224.539062 260.515625 210.363281 256.617188 199.375 241.019531 C 196.894531 237.476562 195.121094 233.222656 193.703125 228.617188 C 188.742188 228.617188 183.777344 227.90625 179.171875 227.199219 Z M 179.523438 227.90625 " fill-opacity="1" fill-rule="evenodd"/><g clip-path="url(#id1)"><path fill="#004aad" d="M 67.734375 220.449219 L 323.484375 220.449219 L 323.484375 290.199219 L 67.734375 290.199219 L 67.734375 220.449219 " fill-opacity="1" fill-rule="nonzero"/></g><g clip-path="url(#id2)"><path fill="#004aad" d="M 113.269531 250.117188 L 242.265625 250.117188 L 242.265625 354.367188 L 113.269531 354.367188 L 113.269531 250.117188 " fill-opacity="1" fill-rule="nonzero"/></g><g clip-path="url(#id3)"><path fill="#004aad" d="M 172.894531 233.429688 L 297.394531 233.429688 L 297.394531 331.675781 L 172.894531 331.675781 L 172.894531 233.429688 " fill-opacity="1" fill-rule="nonzero"/></g><g clip-path="url(#id4)"><path fill="#ffffff" d="M 262.574219 314.253906 C 263.449219 315.128906 263.449219 316.554688 262.574219 317.429688 C 261.695312 318.308594 260.273438 318.308594 259.394531 317.429688 C 258.519531 316.554688 258.519531 315.128906 259.394531 314.253906 C 260.273438 313.375 261.695312 313.375 262.574219 314.253906 Z M 196.445312 230.371094 L 196.445312 276.25 L 220.101562 299.910156 L 243.832031 299.910156 L 258.390625 314.464844 C 257.800781 315.574219 257.976562 316.984375 258.90625 317.917969 C 260.050781 319.0625 261.914062 319.0625 263.0625 317.917969 C 264.207031 316.773438 264.207031 314.910156 263.0625 313.765625 C 262.128906 312.832031 260.71875 312.660156 259.609375 313.246094 L 244.546875 298.1875 L 220.816406 298.1875 L 198.167969 275.535156 L 198.167969 230.371094 C 199.171875 230.015625 199.898438 229.058594 199.898438 227.929688 C 199.898438 226.5 198.734375 225.339844 197.304688 225.339844 C 195.875 225.339844 194.714844 226.5 194.714844 227.929688 C 194.714844 229.058594 195.4375 230.015625 196.445312 230.371094 " fill-opacity="1" fill-rule="nonzero"/></g><path fill="#ffffff" d="M 258.90625 317.917969 L 258.855469 317.863281 L 258.90625 317.917969 " fill-opacity="1" fill-rule="nonzero"/><path fill="#ffffff" d="M 258.582031 317.589844 L 258.578125 317.585938 L 258.582031 317.589844 " fill-opacity="1" fill-rule="nonzero"/><path fill="#ffffff" d="M 259.230469 318.238281 L 259.210938 318.222656 L 259.230469 318.238281 " fill-opacity="1" fill-rule="nonzero"/><path fill="#ffffff" d="M 258.90625 317.917969 C 258.992188 318.003906 259.058594 318.070312 259.109375 318.121094 C 259.050781 318.0625 258.980469 317.988281 258.90625 317.917969 " fill-opacity="1" fill-rule="nonzero"/><path fill="#ffffff" d="M 259.109375 318.121094 C 259.15625 318.167969 259.191406 318.203125 259.210938 318.222656 C 259.1875 318.199219 259.152344 318.164062 259.109375 318.121094 " fill-opacity="1" fill-rule="nonzero"/><path fill="#ffffff" d="M 258.855469 317.863281 C 258.71875 317.730469 258.597656 317.609375 258.582031 317.589844 C 258.597656 317.609375 258.679688 317.6875 258.855469 317.863281 " fill-opacity="1" fill-rule="nonzero"/><g clip-path="url(#id5)"><path fill="#ffffff" d="M 129.207031 296.800781 C 130.449219 296.800781 131.457031 297.808594 131.457031 299.046875 C 131.457031 300.289062 130.449219 301.292969 129.207031 301.292969 C 127.96875 301.292969 126.960938 300.289062 126.960938 299.046875 C 126.960938 297.808594 127.96875 296.800781 129.207031 296.800781 Z M 129.207031 301.984375 C 130.527344 301.984375 131.644531 301.109375 132.015625 299.910156 L 150.355469 299.910156 L 174.019531 276.25 L 174.019531 230.371094 C 175.023438 230.015625 175.75 229.058594 175.75 227.929688 C 175.75 226.5 174.585938 225.339844 173.15625 225.339844 C 171.722656 225.339844 170.5625 226.5 170.5625 227.929688 C 170.5625 229.058594 171.285156 230.015625 172.292969 230.371094 L 172.292969 275.535156 L 149.644531 298.1875 L 132.015625 298.1875 C 131.644531 296.984375 130.527344 296.109375 129.207031 296.109375 C 127.589844 296.109375 126.269531 297.429688 126.269531 299.046875 C 126.269531 300.667969 127.589844 301.984375 129.207031 301.984375 " fill-opacity="1" fill-rule="nonzero"/></g><g clip-path="url(#id6)"><path fill="#ffffff" d="M 171.113281 289.777344 C 171.992188 288.902344 173.414062 288.902344 174.292969 289.777344 C 175.167969 290.65625 175.167969 292.078125 174.292969 292.957031 C 173.414062 293.832031 171.992188 293.832031 171.113281 292.957031 C 170.238281 292.078125 170.238281 290.65625 171.113281 289.777344 Z M 158.3125 333.800781 C 157.070312 333.800781 156.0625 332.792969 156.0625 331.554688 C 156.0625 330.3125 157.070312 329.304688 158.3125 329.304688 C 159.550781 329.304688 160.558594 330.3125 160.558594 331.554688 C 160.558594 332.792969 159.550781 333.800781 158.3125 333.800781 Z M 142.605469 346.152344 C 141.367188 346.152344 140.359375 345.144531 140.359375 343.90625 C 140.359375 342.664062 141.367188 341.65625 142.605469 341.65625 C 143.847656 341.65625 144.855469 342.664062 144.855469 343.90625 C 144.855469 345.144531 143.847656 346.152344 142.605469 346.152344 Z M 115.214844 327.023438 C 116.230469 328.035156 117.871094 328.035156 118.882812 327.023438 C 119.679688 326.222656 119.847656 325.035156 119.386719 324.070312 L 131.371094 312.085938 L 150.765625 312.085938 L 141.746094 321.105469 L 141.746094 341.097656 C 140.542969 341.464844 139.667969 342.585938 139.667969 343.90625 C 139.667969 345.523438 140.988281 346.839844 142.605469 346.839844 C 144.226562 346.839844 145.542969 345.523438 145.542969 343.90625 C 145.542969 342.585938 144.667969 341.464844 143.46875 341.097656 L 143.46875 321.820312 L 165.683594 299.605469 L 165.683594 311.914062 L 157.449219 320.152344 L 157.449219 328.746094 C 156.25 329.117188 155.375 330.234375 155.375 331.554688 C 155.375 333.171875 156.691406 334.488281 158.3125 334.488281 C 159.929688 334.488281 161.246094 333.171875 161.246094 331.554688 C 161.246094 330.234375 160.371094 329.117188 159.171875 328.746094 L 159.171875 320.863281 L 167.40625 312.628906 L 167.40625 297.878906 L 171.328125 293.960938 C 172.4375 294.546875 173.847656 294.375 174.78125 293.441406 C 175.925781 292.296875 175.925781 290.433594 174.78125 289.289062 C 173.632812 288.144531 171.773438 288.144531 170.628906 289.289062 C 169.695312 290.222656 169.519531 291.632812 170.109375 292.742188 L 152.488281 310.363281 L 130.660156 310.363281 L 118.167969 322.851562 C 117.203125 322.390625 116.015625 322.558594 115.214844 323.355469 C 114.203125 324.367188 114.203125 326.007812 115.214844 327.023438 " fill-opacity="1" fill-rule="nonzero"/></g><g clip-path="url(#id7)"><path fill="#ffffff" d="M 190.1875 226.027344 C 191.425781 226.027344 192.433594 227.035156 192.433594 228.273438 C 192.433594 229.515625 191.425781 230.523438 190.1875 230.523438 C 188.949219 230.523438 187.941406 229.515625 187.941406 228.273438 C 187.941406 227.035156 188.949219 226.027344 190.1875 226.027344 Z M 203.140625 348.164062 C 201.902344 348.164062 200.894531 347.152344 200.894531 345.914062 C 200.894531 344.675781 201.902344 343.667969 203.140625 343.667969 C 204.378906 343.667969 205.386719 344.675781 205.386719 345.914062 C 205.386719 347.152344 204.378906 348.164062 203.140625 348.164062 Z M 189.328125 231.082031 L 189.328125 297.878906 L 202.28125 310.835938 L 202.28125 343.109375 C 201.078125 343.476562 200.203125 344.597656 200.203125 345.914062 C 200.203125 347.535156 201.523438 348.851562 203.140625 348.851562 C 204.761719 348.851562 206.078125 347.535156 206.078125 345.914062 C 206.078125 344.597656 205.203125 343.476562 204.003906 343.109375 L 204.003906 326.230469 L 212.25 334.476562 L 238.375 334.476562 L 245.199219 341.296875 C 244.738281 342.261719 244.902344 343.449219 245.703125 344.25 C 246.714844 345.261719 248.355469 345.261719 249.367188 344.25 C 250.378906 343.238281 250.378906 341.597656 249.367188 340.582031 C 248.570312 339.785156 247.382812 339.621094 246.417969 340.078125 L 239.089844 332.75 L 212.964844 332.75 L 204.003906 323.792969 L 204.003906 310.121094 L 191.050781 297.167969 L 191.050781 231.082031 C 192.25 230.714844 193.125 229.59375 193.125 228.273438 C 193.125 226.65625 191.808594 225.339844 190.1875 225.339844 C 188.570312 225.339844 187.25 226.65625 187.25 228.273438 C 187.25 229.59375 188.125 230.714844 189.328125 231.082031 " fill-opacity="1" fill-rule="nonzero"/></g><g clip-path="url(#id8)"><path fill="#ffffff" d="M 181.859375 226.027344 C 183.097656 226.027344 184.105469 227.035156 184.105469 228.273438 C 184.105469 229.515625 183.097656 230.523438 181.859375 230.523438 C 180.617188 230.523438 179.609375 229.515625 179.609375 228.273438 C 179.609375 227.035156 180.617188 226.027344 181.859375 226.027344 Z M 189.757812 363.386719 C 188.515625 363.386719 187.507812 362.378906 187.507812 361.140625 C 187.507812 359.898438 188.515625 358.890625 189.757812 358.890625 C 190.996094 358.890625 192.003906 359.898438 192.003906 361.140625 C 192.003906 362.378906 190.996094 363.386719 189.757812 363.386719 Z M 180.996094 231.082031 L 180.996094 311.914062 L 172.617188 320.296875 L 172.617188 339.214844 C 171.609375 339.570312 170.886719 340.527344 170.886719 341.65625 C 170.886719 343.089844 172.046875 344.25 173.476562 344.25 C 174.910156 344.25 176.070312 343.089844 176.070312 341.65625 C 176.070312 340.527344 175.347656 339.570312 174.339844 339.214844 L 174.339844 321.007812 L 180.996094 314.351562 L 180.996094 334.558594 L 188.894531 342.457031 L 188.894531 358.332031 C 187.695312 358.699219 186.820312 359.820312 186.820312 361.140625 C 186.820312 362.757812 188.136719 364.074219 189.757812 364.074219 C 191.375 364.074219 192.695312 362.757812 192.695312 361.140625 C 192.695312 359.820312 191.816406 358.699219 190.617188 358.332031 L 190.617188 341.746094 L 182.71875 333.847656 L 182.71875 231.082031 C 183.917969 230.714844 184.792969 229.59375 184.792969 228.273438 C 184.792969 226.65625 183.476562 225.339844 181.859375 225.339844 C 180.238281 225.339844 178.921875 226.65625 178.921875 228.273438 C 178.921875 229.59375 179.796875 230.714844 180.996094 231.082031 " fill-opacity="1" fill-rule="nonzero"/></g><path fill="#ffffff" d="M 174.453125 293.769531 L 174.449219 293.773438 L 174.453125 293.769531 " fill-opacity="1" fill-rule="nonzero"/><path fill="#ffffff" d="M 174.78125 293.441406 L 174.726562 293.496094 L 174.78125 293.441406 " fill-opacity="1" fill-rule="nonzero"/><path fill="#ffffff" d="M 175.101562 293.121094 L 175.082031 293.136719 L 175.101562 293.121094 " fill-opacity="1" fill-rule="nonzero"/><path fill="#ffffff" d="M 175.082031 293.136719 C 175.0625 293.160156 175.027344 293.195312 174.980469 293.242188 C 175.023438 293.199219 175.058594 293.164062 175.082031 293.136719 " fill-opacity="1" fill-rule="nonzero"/><path fill="#ffffff" d="M 174.980469 293.242188 C 174.929688 293.292969 174.867188 293.355469 174.78125 293.441406 C 174.851562 293.371094 174.921875 293.300781 174.980469 293.242188 " fill-opacity="1" fill-rule="nonzero"/><path fill="#ffffff" d="M 174.726562 293.496094 C 174.550781 293.671875 174.46875 293.753906 174.453125 293.769531 C 174.46875 293.753906 174.589844 293.632812 174.726562 293.496094 " fill-opacity="1" fill-rule="nonzero"/><path fill="#ffffff" d="M 228.378906 306.761719 C 228.378906 305.523438 229.382812 304.515625 230.625 304.515625 C 231.863281 304.515625 232.871094 305.523438 232.871094 306.761719 C 232.871094 308 231.863281 309.007812 230.625 309.007812 C 229.382812 309.007812 228.378906 308 228.378906 306.761719 Z M 242.800781 324.304688 C 243.8125 325.316406 245.453125 325.316406 246.464844 324.304688 C 247.476562 323.292969 247.476562 321.652344 246.464844 320.636719 C 245.667969 319.839844 244.480469 319.675781 243.515625 320.136719 L 238.226562 314.847656 L 223.335938 314.847656 L 216.109375 307.621094 L 227.816406 307.621094 C 228.1875 308.824219 229.304688 309.699219 230.625 309.699219 C 232.242188 309.699219 233.5625 308.378906 233.5625 306.761719 C 233.5625 305.140625 232.242188 303.824219 230.625 303.824219 C 229.304688 303.824219 228.1875 304.699219 227.816406 305.898438 L 214.386719 305.898438 L 209.003906 300.519531 C 209.464844 299.554688 209.300781 298.367188 208.503906 297.570312 C 207.488281 296.554688 205.847656 296.554688 204.835938 297.570312 C 203.824219 298.582031 203.824219 300.222656 204.835938 301.234375 C 205.632812 302.03125 206.824219 302.199219 207.785156 301.738281 L 213.671875 307.621094 L 222.621094 316.570312 L 237.511719 316.570312 L 242.296875 321.355469 C 241.835938 322.316406 242.003906 323.507812 242.800781 324.304688 " fill-opacity="1" fill-rule="nonzero"/></svg>